<mxfile host="Electron" agent="Mozilla/5.0 (Macintosh; Intel Mac OS X 10_15_7) AppleWebKit/537.36 (KHTML, like Gecko) draw.io/25.0.2 Chrome/128.0.6613.186 Electron/32.2.5 Safari/537.36" version="25.0.2">
  <diagram id="6gnA3jqjy0JYR7q9POcY" name="Page-1">
    <mxGraphModel dx="901" dy="617" grid="1" gridSize="10" guides="1" tooltips="1" connect="1" arrows="1" fold="1" page="1" pageScale="1" pageWidth="827" pageHeight="1169" math="0" shadow="0">
      <root>
        <mxCell id="0" />
        <mxCell id="1" parent="0" />
        <mxCell id="GvNWRyxPNGRTKHPqQMS5-16" value="Request" style="edgeStyle=orthogonalEdgeStyle;rounded=0;orthogonalLoop=1;jettySize=auto;html=1;exitX=1;exitY=0.25;exitDx=0;exitDy=0;entryX=0;entryY=0.25;entryDx=0;entryDy=0;" edge="1" parent="1" source="3" target="2">
          <mxGeometry relative="1" as="geometry" />
        </mxCell>
        <mxCell id="3" value="gPTP&amp;nbsp;Follower&lt;div&gt;Endstation&lt;/div&gt;" style="rounded=1;whiteSpace=wrap;html=1;" parent="1" vertex="1">
          <mxGeometry width="120" height="60" as="geometry" />
        </mxCell>
        <mxCell id="13" value="" style="group;spacingLeft=0;" parent="1" vertex="1" connectable="0">
          <mxGeometry x="240" width="120" height="60" as="geometry" />
        </mxCell>
        <mxCell id="2" value="gPTP GM&lt;div&gt;&lt;div style=&quot;&quot;&gt;&lt;span style=&quot;background-color: initial;&quot;&gt;Time-aware&lt;/span&gt;&lt;/div&gt;&lt;div&gt;&lt;span style=&quot;background-color: initial;&quot;&gt;Switch&lt;/span&gt;&lt;br&gt;&lt;/div&gt;&lt;/div&gt;" style="rounded=1;whiteSpace=wrap;html=1;align=center;spacingLeft=25;" parent="13" vertex="1">
          <mxGeometry width="120" height="60" as="geometry" />
        </mxCell>
        <mxCell id="12" value="" style="sketch=0;pointerEvents=1;shadow=0;dashed=0;html=1;labelPosition=center;verticalLabelPosition=bottom;verticalAlign=top;outlineConnect=0;align=center;shape=mxgraph.office.concepts.clock;aspect=fixed;" parent="13" vertex="1">
          <mxGeometry x="10" y="20" width="20" height="20" as="geometry" />
        </mxCell>
        <mxCell id="GvNWRyxPNGRTKHPqQMS5-19" value="Response" style="edgeStyle=orthogonalEdgeStyle;rounded=0;orthogonalLoop=1;jettySize=auto;html=1;exitX=0;exitY=0.75;exitDx=0;exitDy=0;entryX=1;entryY=0.75;entryDx=0;entryDy=0;" edge="1" parent="1" source="GvNWRyxPNGRTKHPqQMS5-13" target="2">
          <mxGeometry relative="1" as="geometry">
            <mxPoint as="offset" />
          </mxGeometry>
        </mxCell>
        <mxCell id="GvNWRyxPNGRTKHPqQMS5-20" value="Response" style="edgeStyle=orthogonalEdgeStyle;rounded=0;orthogonalLoop=1;jettySize=auto;html=1;exitX=1;exitY=0.25;exitDx=0;exitDy=0;entryX=0;entryY=0.25;entryDx=0;entryDy=0;" edge="1" parent="1" source="GvNWRyxPNGRTKHPqQMS5-13" target="GvNWRyxPNGRTKHPqQMS5-14">
          <mxGeometry relative="1" as="geometry" />
        </mxCell>
        <mxCell id="GvNWRyxPNGRTKHPqQMS5-13" value="gPTP&amp;nbsp;Follower&lt;div&gt;Time-aware Switch&lt;/div&gt;" style="rounded=1;whiteSpace=wrap;html=1;" vertex="1" parent="1">
          <mxGeometry x="480" width="120" height="60" as="geometry" />
        </mxCell>
        <mxCell id="GvNWRyxPNGRTKHPqQMS5-21" value="Request" style="edgeStyle=orthogonalEdgeStyle;rounded=0;orthogonalLoop=1;jettySize=auto;html=1;exitX=0;exitY=0.75;exitDx=0;exitDy=0;entryX=1;entryY=0.75;entryDx=0;entryDy=0;" edge="1" parent="1" source="GvNWRyxPNGRTKHPqQMS5-14" target="GvNWRyxPNGRTKHPqQMS5-13">
          <mxGeometry relative="1" as="geometry" />
        </mxCell>
        <mxCell id="GvNWRyxPNGRTKHPqQMS5-22" value="Response" style="edgeStyle=orthogonalEdgeStyle;rounded=0;orthogonalLoop=1;jettySize=auto;html=1;exitX=1;exitY=0.25;exitDx=0;exitDy=0;entryX=0;entryY=0.25;entryDx=0;entryDy=0;" edge="1" parent="1" source="GvNWRyxPNGRTKHPqQMS5-14" target="GvNWRyxPNGRTKHPqQMS5-15">
          <mxGeometry relative="1" as="geometry" />
        </mxCell>
        <mxCell id="GvNWRyxPNGRTKHPqQMS5-14" value="gPTP&amp;nbsp;Follower&lt;div&gt;Time-aware Switch&lt;/div&gt;" style="rounded=1;whiteSpace=wrap;html=1;" vertex="1" parent="1">
          <mxGeometry x="720" width="120" height="60" as="geometry" />
        </mxCell>
        <mxCell id="GvNWRyxPNGRTKHPqQMS5-23" value="Request" style="edgeStyle=orthogonalEdgeStyle;rounded=0;orthogonalLoop=1;jettySize=auto;html=1;exitX=0;exitY=0.75;exitDx=0;exitDy=0;entryX=1;entryY=0.75;entryDx=0;entryDy=0;" edge="1" parent="1" source="GvNWRyxPNGRTKHPqQMS5-15" target="GvNWRyxPNGRTKHPqQMS5-14">
          <mxGeometry relative="1" as="geometry" />
        </mxCell>
        <mxCell id="GvNWRyxPNGRTKHPqQMS5-15" value="gPTP&amp;nbsp;Follower&lt;div&gt;Endstation&lt;/div&gt;" style="rounded=1;whiteSpace=wrap;html=1;" vertex="1" parent="1">
          <mxGeometry x="960" width="120" height="60" as="geometry" />
        </mxCell>
        <mxCell id="GvNWRyxPNGRTKHPqQMS5-17" value="Response" style="edgeStyle=orthogonalEdgeStyle;rounded=0;orthogonalLoop=1;jettySize=auto;html=1;exitX=0;exitY=0.75;exitDx=0;exitDy=0;entryX=1;entryY=0.75;entryDx=0;entryDy=0;" edge="1" parent="1" source="2" target="3">
          <mxGeometry relative="1" as="geometry" />
        </mxCell>
        <mxCell id="GvNWRyxPNGRTKHPqQMS5-18" value="Request" style="edgeStyle=orthogonalEdgeStyle;rounded=0;orthogonalLoop=1;jettySize=auto;html=1;exitX=1;exitY=0.25;exitDx=0;exitDy=0;entryX=0;entryY=0.25;entryDx=0;entryDy=0;" edge="1" parent="1" source="2" target="GvNWRyxPNGRTKHPqQMS5-13">
          <mxGeometry relative="1" as="geometry" />
        </mxCell>
      </root>
    </mxGraphModel>
  </diagram>
</mxfile>
